<?xml version="1.0" encoding="utf-8"?>
<!-- Generator: Adobe Illustrator 16.0.0, SVG Export Plug-In . SVG Version: 6.00 Build 0)  -->
<!DOCTYPE svg PUBLIC "-//W3C//DTD SVG 1.1//EN" "http://www.w3.org/Graphics/SVG/1.1/DTD/svg11.dtd">
<svg version="1.1" id="Calque_1" xmlns="http://www.w3.org/2000/svg" xmlns:xlink="http://www.w3.org/1999/xlink" x="0px" y="0px"
	 width="464.977px" height="256.487px" viewBox="0 0 464.977 256.487" enable-background="new 0 0 464.977 256.487"
	 xml:space="preserve">
<path fill="none" stroke="#FFFFFF" stroke-width="13" stroke-miterlimit="10" d="M113.762,230.389
	c0-39.342,21.916-71.177,48.999-71.177"/>
<path fill="none" stroke="#FFFFFF" stroke-width="13" stroke-miterlimit="10" d="M211.761,230.389c0-39.342-21.916-71.177-49-71.177
	"/>
<path fill="none" stroke="#FFFFFF" stroke-width="13" stroke-miterlimit="10" d="M211.761,230.389c0-39.342,21.916-71.177,49-71.177
	"/>
<path fill="none" stroke="#FFFFFF" stroke-width="13" stroke-miterlimit="10" d="M309.758,230.389
	c0-39.342-21.915-71.177-48.998-71.177"/>
<path fill="none" stroke="#FFFFFF" stroke-width="13" stroke-miterlimit="10" d="M338.6,115.889c30.953,0,56,24.264,56,54.25"/>
<path fill="none" stroke="#FFFFFF" stroke-width="13" stroke-miterlimit="10" d="M338.6,224.389c30.953,0,56-24.264,56-54.25"/>
<path fill="none" stroke="#FFFFFF" stroke-width="13" stroke-miterlimit="10" d="M450.6,224.389c-30.953,0-56-24.264-56-54.25"/>
<path fill="none" stroke="#FFFFFF" stroke-width="13" stroke-miterlimit="10" d="M450.6,115.889c-30.953,0-56,24.264-56,54.25"/>
<path fill="none" stroke="#FFFFFF" stroke-width="13" stroke-miterlimit="10" d="M35.413,27.389
	c32.016,0,57.924,29.579,57.924,66.132"/>
<path fill="none" stroke="#FFFFFF" stroke-width="13" stroke-miterlimit="10" d="M35.413,120.99
	c32.016,0,57.924-12.286,57.924-27.469"/>
<line fill="none" stroke="#FFFFFF" stroke-width="13" stroke-miterlimit="10" x1="29.413" y1="20.389" x2="29.413" y2="230.389"/>
<line fill="none" stroke="#FFFFFF" stroke-width="13" stroke-miterlimit="10" x1="85.895" y1="230.389" x2="85.895" y2="143.014"/>
<line fill="none" stroke="#FFFFFF" stroke-width="13" stroke-miterlimit="10" x1="340.895" y1="230.389" x2="340.895" y2="181.712"/>
<line fill="none" stroke="#FFFFFF" stroke-width="13" stroke-miterlimit="10" x1="304.758" y1="224.389" x2="338.6" y2="224.389"/>
<line fill="none" stroke="#FFFFFF" stroke-width="13" stroke-miterlimit="10" x1="23.895" y1="224.389" x2="113.97" y2="224.389"/>
<circle fill="none" stroke="#FFFFFF" stroke-width="11" stroke-miterlimit="10" cx="340.895" cy="170.139" r="8"/>
<rect x="65.895" y="151.649" fill="none" stroke="#FFFFFF" stroke-width="6" stroke-miterlimit="10" width="39" height="10.574"/>
</svg>
