<svg width="1024" height="936" viewBox="0 0 1024 936" fill="none" xmlns="http://www.w3.org/2000/svg">
<rect x="427.557" y="499.61" width="27.2078" height="106.11" transform="rotate(107.331 427.557 499.61)" fill="black"/>
<rect x="529.045" y="370.862" width="27.2078" height="106.11" transform="rotate(149.483 529.045 370.862)" fill="black"/>
<rect x="705.036" y="360.544" width="27.2078" height="106.11" transform="rotate(-174.196 705.036 360.544)" fill="black"/>
<mask id="mask0" mask-type="alpha" maskUnits="userSpaceOnUse" x="84" y="49" width="855" height="838">
<rect x="94" y="59" width="835" height="818" rx="90" fill="white" stroke="black" stroke-width="20"/>
</mask>
<g mask="url(#mask0)">
<circle cx="647.786" cy="585.941" r="275.212" fill="black"/>
<circle cx="647.786" cy="585.941" r="224.324" fill="black" stroke="white" stroke-width="8"/>
<circle cx="647.277" cy="585.431" r="262.49" stroke="white" stroke-width="2"/>
<circle cx="647.787" cy="585.941" r="250.287" stroke="white" stroke-width="5"/>
<circle cx="647.277" cy="585.431" r="82.1504" fill="#C4C4C4" stroke="white" stroke-width="10"/>
<rect x="44.5" y="580.692" width="932.308" height="303.808" fill="#EFEFEF" stroke="black" stroke-width="5"/>
<path d="M245.377 778.796C244.044 778.796 242.844 778.329 241.777 777.396C240.844 776.329 240.377 775.129 240.377 773.796V643.796C240.377 642.329 240.844 641.129 241.777 640.196C242.844 639.262 244.044 638.796 245.377 638.796H301.377C318.444 638.796 331.844 642.729 341.577 650.596C351.444 658.462 356.377 669.929 356.377 684.996C356.377 699.929 351.51 711.196 341.777 718.796C332.044 726.262 318.577 729.996 301.377 729.996H277.577V773.796C277.577 775.262 277.044 776.462 275.977 777.396C275.044 778.329 273.844 778.796 272.377 778.796H245.377ZM300.377 702.396C306.244 702.396 310.844 700.929 314.177 697.996C317.51 694.929 319.177 690.462 319.177 684.596C319.177 679.129 317.577 674.796 314.377 671.596C311.31 668.262 306.644 666.596 300.377 666.596H276.977V702.396H300.377ZM380.533 778.796C379.2 778.796 378 778.329 376.933 777.396C376 776.329 375.533 775.129 375.533 773.796V643.796C375.533 642.329 376 641.129 376.933 640.196C378 639.262 379.2 638.796 380.533 638.796H407.333C408.8 638.796 410 639.262 410.933 640.196C412 641.129 412.533 642.329 412.533 643.796V773.796C412.533 775.262 412 776.462 410.933 777.396C410 778.329 408.8 778.796 407.333 778.796H380.533ZM445.377 778.796C444.044 778.796 442.844 778.329 441.777 777.396C440.844 776.329 440.377 775.129 440.377 773.796V643.796C440.377 642.329 440.844 641.129 441.777 640.196C442.844 639.262 444.044 638.796 445.377 638.796H466.977C470.177 638.796 472.51 640.262 473.977 643.196L509.177 706.196L544.377 643.196C545.844 640.262 548.177 638.796 551.377 638.796H572.777C574.244 638.796 575.444 639.262 576.377 640.196C577.444 641.129 577.977 642.329 577.977 643.796V773.796C577.977 775.262 577.444 776.462 576.377 777.396C575.444 778.329 574.244 778.796 572.777 778.796H548.977C547.51 778.796 546.244 778.329 545.177 777.396C544.244 776.462 543.777 775.262 543.777 773.796V698.796L521.377 740.596C519.644 743.662 517.31 745.196 514.377 745.196H503.977C502.244 745.196 500.844 744.796 499.777 743.996C498.71 743.196 497.777 742.062 496.977 740.596L474.377 698.796V773.796C474.377 775.129 473.91 776.329 472.977 777.396C472.044 778.329 470.844 778.796 469.377 778.796H445.377ZM611.002 778.796C609.669 778.796 608.469 778.329 607.402 777.396C606.469 776.329 606.002 775.129 606.002 773.796V643.796C606.002 642.329 606.469 641.129 607.402 640.196C608.469 639.262 609.669 638.796 611.002 638.796H637.802C639.269 638.796 640.469 639.262 641.402 640.196C642.469 641.129 643.002 642.329 643.002 643.796V773.796C643.002 775.262 642.469 776.462 641.402 777.396C640.469 778.329 639.269 778.796 637.802 778.796H611.002ZM663.446 778.796C662.246 778.796 661.179 778.396 660.246 777.596C659.446 776.662 659.046 775.662 659.046 774.596C659.046 773.662 659.312 772.862 659.846 772.196L703.446 707.396L663.046 645.396C662.646 644.596 662.446 643.796 662.446 642.996C662.446 641.929 662.846 640.996 663.646 640.196C664.446 639.262 665.446 638.796 666.646 638.796H695.646C697.246 638.796 698.579 639.196 699.646 639.996C700.712 640.796 701.712 641.796 702.646 642.996L726.446 679.196L750.646 642.996C752.379 640.196 754.712 638.796 757.646 638.796H785.246C786.312 638.796 787.246 639.262 788.046 640.196C788.979 640.996 789.446 641.929 789.446 642.996C789.446 643.929 789.179 644.729 788.646 645.396L748.046 707.196L792.046 772.196C792.446 772.729 792.646 773.529 792.646 774.596C792.646 775.662 792.246 776.662 791.446 777.596C790.646 778.396 789.646 778.796 788.446 778.796H758.646C755.846 778.796 753.512 777.462 751.646 774.796L725.246 736.396L699.046 774.796C697.579 777.462 695.312 778.796 692.246 778.796H663.446Z" fill="black"/>
<line x1="963.906" y1="324.226" x2="624.709" y2="400.116" stroke="#999191" stroke-width="20"/>
<line x1="630.064" y1="396.929" x2="548.606" y2="490.358" stroke="#999191" stroke-width="20"/>
<circle cx="876.25" cy="345.602" r="39.2432" transform="rotate(167.389 876.25 345.602)" fill="black"/>
<rect x="509.031" y="508.657" width="10.193" height="44.8493" transform="rotate(130.152 509.031 508.657)" fill="#999191"/>
<rect x="603.109" y="471.638" width="129.451" height="57.081" transform="rotate(131.001 603.109 471.638)" fill="#C4C4C4"/>
<rect x="94" y="59" width="835" height="818" rx="90" stroke="black" stroke-width="20"/>
<ellipse cx="258.5" cy="458.5" rx="97.5" ry="98.5" fill="black"/>
<circle cx="431" cy="241" r="98" fill="black"/>
<ellipse cx="708.5" cy="189.5" rx="97.5" ry="98.5" fill="black"/>
</g>
</svg>
